<?xml version="1.0" standalone="no"?>
<!DOCTYPE svg PUBLIC "-//W3C//DTD SVG 20010904//EN"
 "http://www.w3.org/TR/2001/REC-SVG-20010904/DTD/svg10.dtd">
<svg version="1.0" xmlns="http://www.w3.org/2000/svg"
 width="1024.000000pt" height="1024.000000pt" viewBox="0 0 1024.000000 1024.000000"
 preserveAspectRatio="xMidYMid meet">

<g transform="translate(0.000000,1024.000000) scale(0.100000,-0.100000)"
fill="#000000" stroke="none">
<path d="M0 5120 l0 -5120 478 0 478 0 63 148 c95 221 498 1007 604 1175 145
231 417 540 537 610 52 30 155 66 455 161 464 147 624 199 699 229 l78 31 111
165 c106 160 166 237 263 337 25 25 44 47 42 49 -2 1 -46 21 -98 44 -304 134
-484 279 -575 464 -74 150 -85 213 -91 493 -5 237 0 303 18 255 4 -12 12 -20
17 -17 5 3 11 -1 15 -9 3 -8 1 -15 -5 -15 -6 0 -9 -6 -6 -12 2 -7 13 -12 24
-10 16 2 24 -5 33 -32 6 -20 16 -39 22 -42 7 -5 8 -2 3 6 -5 9 -4 11 3 6 17
-10 15 -26 -3 -26 -8 0 -15 -5 -15 -11 0 -5 4 -7 10 -4 5 3 15 -14 21 -39 8
-34 15 -43 27 -39 10 4 13 2 8 -5 -4 -7 -3 -12 3 -12 6 0 8 -7 4 -16 -7 -18
15 -63 38 -81 12 -9 33 -60 42 -103 2 -5 25 -34 44 -55 7 -7 9 -15 6 -19 -4
-3 1 -6 11 -6 10 0 17 -7 16 -17 -3 -31 11 -62 31 -68 11 -4 17 -11 14 -16 -4
-5 1 -16 9 -25 9 -8 16 -11 16 -5 0 15 20 14 20 -1 1 -18 36 -58 50 -58 6 0 8
-5 5 -10 -8 -13 22 -43 34 -36 5 3 12 -5 15 -19 5 -21 12 -25 45 -25 22 0 44
-6 51 -15 7 -8 16 -13 20 -10 5 3 11 1 15 -5 5 -9 -7 -14 -26 -12 -4 1 -2 -10
5 -23 7 -17 17 -23 29 -19 11 3 17 0 17 -10 0 -18 25 -22 35 -6 3 6 1 10 -5
10 -7 0 -9 7 -6 16 4 12 2 15 -9 10 -10 -4 -21 8 -34 38 -18 39 -23 42 -51 38
-30 -4 -31 -3 -28 32 1 20 -3 41 -10 48 -9 9 -12 9 -12 -2 0 -7 -3 -10 -7 -7
-3 4 -12 2 -20 -4 -9 -9 -13 -8 -13 0 0 6 5 11 10 11 6 0 10 9 10 20 0 11 -4
20 -10 20 -5 0 -7 7 -3 16 5 13 2 15 -15 9 -19 -5 -22 -2 -22 19 0 14 -4 27
-9 30 -12 8 -49 79 -53 103 -2 10 -11 24 -20 31 -10 7 -18 18 -18 24 0 7 6 6
15 -2 9 -8 15 -9 15 -2 0 6 -4 13 -9 17 -16 9 -41 67 -34 78 3 5 -3 17 -13 25
-13 10 -15 16 -6 19 6 3 12 9 12 14 0 4 -6 6 -14 3 -11 -4 -17 5 -22 30 -3 20
-10 36 -14 36 -9 0 -21 33 -26 69 -2 13 -7 28 -13 34 -5 5 -7 16 -4 23 3 8 2
22 -2 32 -4 9 -9 31 -11 47 -5 44 -10 67 -19 90 -4 11 -9 27 -12 35 -3 8 -5
28 -4 43 2 15 -3 35 -9 43 -10 11 -10 17 0 29 10 12 10 15 -4 15 -9 0 -16 5
-16 10 0 6 4 10 10 10 12 0 9 20 -7 37 -7 8 -8 25 -3 46 4 19 3 42 -2 51 -5 9
-5 16 -1 16 5 0 10 10 11 23 4 39 8 101 10 135 1 21 6 31 13 26 7 -4 9 0 5 14
-4 11 -2 23 4 27 5 3 10 11 10 17 0 7 -6 6 -15 -2 -12 -10 -15 -10 -15 3 0 9
5 19 10 22 6 4 10 14 9 23 -1 10 3 30 10 47 7 16 10 40 8 53 -8 43 9 31 22
-16 26 -96 65 -199 97 -258 137 -249 453 -387 755 -329 102 19 145 35 236 86
216 122 347 354 360 640 11 230 -44 410 -174 568 l-28 34 30 -15 c35 -18 266
-39 365 -33 189 11 271 19 330 32 36 8 85 18 110 23 156 26 272 55 321 80 31
15 71 31 88 35 17 3 34 12 38 19 5 7 37 23 73 36 36 12 75 33 88 46 13 13 28
24 35 24 22 0 297 187 297 202 0 4 7 8 15 8 8 0 15 5 15 10 0 34 188 -10 295
-68 59 -32 85 -79 129 -232 33 -114 60 -198 71 -223 4 -10 -33 23 -83 73 -76
76 -106 98 -175 130 -110 52 -190 70 -313 70 -80 0 -121 -6 -190 -26 -139 -40
-216 -85 -319 -189 -76 -75 -98 -105 -138 -185 -73 -147 -90 -231 -85 -414 4
-138 7 -159 37 -245 42 -123 87 -197 177 -287 145 -145 297 -207 509 -207 214
-1 361 58 501 199 93 93 136 169 180 319 37 125 45 329 16 458 -10 48 -17 87
-16 87 10 0 36 -83 45 -144 6 -39 12 -86 15 -104 3 -20 9 -30 16 -26 7 4 8 3
4 -4 -3 -6 -1 -31 5 -57 9 -35 9 -48 -1 -60 -25 -30 -1 -27 45 6 50 36 111
111 144 177 12 23 24 42 27 42 4 0 4 -57 0 -127 -4 -71 -11 -270 -16 -443 -17
-571 -21 -663 -31 -835 -5 -93 -12 -182 -15 -196 -5 -25 -7 -26 -42 -17 -20 5
-84 13 -142 18 -58 5 -150 16 -204 24 -196 31 -244 18 -290 -77 -62 -132 -108
-366 -86 -446 13 -51 70 -107 123 -123 36 -11 38 -13 21 -26 -25 -18 -112 -63
-133 -67 -9 -2 -45 -15 -81 -30 -80 -32 -326 -107 -440 -134 -298 -71 -674
-102 -988 -82 -367 23 -685 83 -978 185 -72 25 -133 46 -136 46 -3 0 -29 -37
-58 -83 -30 -45 -71 -99 -92 -120 -20 -21 -45 -51 -55 -68 -9 -16 -23 -29 -30
-29 -7 0 -12 -3 -12 -7 3 -19 -2 -34 -10 -29 -5 3 -8 -5 -8 -18 -1 -13 -18
-52 -39 -86 -22 -34 -43 -70 -49 -81 -5 -10 -15 -19 -21 -19 -13 0 -119 -202
-149 -282 -10 -26 -22 -45 -28 -41 -9 5 -4 87 9 139 6 22 6 22 -83 -6 -48 -15
-122 -38 -163 -50 -248 -73 -585 -194 -733 -263 l-95 -45 -12 28 c-7 16 -20
36 -31 46 -18 16 -19 16 -19 -14 0 -22 -13 -44 -48 -84 -27 -29 -68 -80 -93
-112 -24 -33 -59 -78 -76 -100 -37 -47 -194 -259 -241 -326 -29 -43 -45 -68
-109 -176 -16 -26 -36 -58 -45 -73 -13 -20 -129 -248 -162 -321 -4 -8 -20 -37
-36 -65 -49 -84 -110 -213 -110 -231 0 -9 -16 -36 -35 -60 -19 -23 -35 -52
-35 -63 0 -12 -4 -21 -9 -21 -5 0 -11 -8 -15 -17 -3 -10 -15 -31 -25 -48 -11
-16 -29 -49 -41 -72 -12 -23 -30 -45 -40 -48 -10 -3 -21 -13 -24 -21 -3 -8
-10 -12 -16 -9 -5 3 -10 1 -10 -4 0 -8 1230 -11 4129 -11 4067 0 4129 0 4134
19 3 14 1 18 -9 14 -8 -3 -14 1 -14 11 0 9 5 16 11 16 5 0 7 5 4 10 -4 6 -16
8 -27 4 -18 -5 -20 -3 -15 16 3 12 3 19 0 16 -6 -6 -102 143 -131 202 -7 15
-17 34 -23 42 -5 8 -26 49 -46 90 -20 41 -40 77 -44 80 -3 3 -10 16 -14 30 -4
14 -13 32 -20 40 -7 8 -46 80 -85 160 -40 80 -98 186 -128 235 -169 275 -170
277 -267 409 -106 144 -227 297 -293 371 -40 45 -52 65 -47 82 9 38 -11 34
-39 -7 l-26 -39 -87 44 c-192 95 -758 300 -939 339 l-31 7 8 -53 c10 -74 11
-108 0 -108 -5 0 -12 12 -16 27 -19 80 -202 426 -313 593 -100 150 -100 150
-63 115 42 -39 83 -94 206 -278 l101 -149 169 -54 c94 -30 256 -79 360 -110
532 -156 522 -153 693 -244 117 -63 323 -299 501 -577 200 -311 481 -859 646
-1261 l38 -92 463 0 464 0 0 5120 0 5120 -5120 0 -5120 0 0 -5120z m4795 4753
c54 -75 266 -277 356 -340 104 -71 210 -128 472 -253 125 -60 265 -131 310
-158 80 -48 85 -49 198 -61 261 -25 376 -57 734 -198 416 -164 825 -417 825
-510 0 -10 -20 -52 -45 -93 -25 -41 -45 -78 -45 -82 0 -4 30 -45 67 -90 107
-132 291 -432 324 -527 12 -33 13 -33 58 -27 89 12 160 60 243 165 42 52 55
-194 17 -329 -11 -41 -39 -111 -63 -155 l-43 -80 43 -65 c24 -36 53 -89 65
-118 21 -51 21 -53 3 -73 -20 -22 -20 -17 32 -244 32 -142 57 -320 63 -453 l6
-144 95 -72 c115 -87 181 -170 209 -261 57 -185 55 -825 -5 -1180 -34 -204
-86 -375 -125 -414 l-30 -30 17 -51 c23 -69 15 -221 -16 -302 -48 -129 -171
-277 -300 -363 -139 -93 -329 -174 -477 -205 -42 -9 -53 -16 -63 -40 -9 -21
-23 -33 -48 -40 -44 -12 -48 -8 -29 22 32 50 49 149 39 226 -4 40 -6 74 -4 77
12 12 53 4 59 -12 3 -9 1 -49 -6 -90 -20 -119 -23 -117 127 -73 246 72 373
140 498 264 63 64 90 100 122 166 52 105 66 176 59 308 -4 87 -2 105 13 125
24 32 54 123 84 262 60 280 61 290 59 595 -2 337 -10 495 -25 524 -6 12 -18
59 -25 105 -21 131 -42 164 -190 286 -33 28 -68 61 -78 75 -24 36 -140 110
-170 110 -8 0 -15 4 -15 10 0 5 -31 27 -69 47 -68 37 -69 39 -74 83 -7 70 -54
265 -72 304 -14 29 -85 98 -85 83 0 -3 9 -49 20 -102 25 -119 25 -150 0 -70
-10 33 -34 110 -53 170 -19 61 -36 116 -38 124 -3 11 16 18 76 28 111 19 127
20 132 7 2 -7 -29 -16 -87 -23 -49 -7 -90 -17 -90 -22 0 -32 32 -79 68 -99 53
-30 78 -78 111 -213 20 -80 33 -113 44 -115 12 -2 17 7 20 40 2 27 4 15 5 -33
l2 -76 131 -61 c72 -34 135 -62 140 -62 6 0 8 14 5 33 -3 17 -13 95 -21 171
-15 133 -34 246 -54 311 -5 17 -10 26 -10 22 -1 -5 -6 -5 -12 -1 -8 5 -8 9 1
14 9 6 7 27 -10 86 -12 44 -23 84 -24 89 -2 6 -7 18 -11 28 -5 13 -2 25 12 39
l21 20 -42 73 c-59 105 -86 132 -165 165 -38 17 -85 39 -103 49 -18 11 -55 29
-83 39 -27 11 -97 43 -155 72 l-105 51 53 -5 c28 -3 52 -3 52 -1 0 8 -197 161
-284 220 -107 72 -236 137 -326 165 l-65 20 70 -4 c42 -2 109 -16 168 -36 55
-17 101 -30 103 -27 12 12 -106 163 -191 246 -91 88 -131 144 -118 164 3 5 1
19 -4 30 -29 64 -42 97 -38 97 3 0 47 -43 99 -95 85 -86 100 -97 153 -112 32
-8 66 -15 76 -15 9 0 17 -4 17 -10 0 -10 -21 -8 -84 8 -27 6 -27 6 23 -87 27
-52 60 -127 72 -168 l24 -74 95 -62 c52 -34 147 -103 210 -154 139 -112 184
-139 318 -191 l104 -40 39 22 c72 40 119 180 119 358 l0 95 -19 -31 c-27 -44
-88 -92 -141 -108 -99 -32 -215 -32 -203 0 3 8 0 14 -6 14 -6 0 -11 10 -11 21
0 39 -151 282 -287 461 l-76 102 -29 -34 c-20 -25 -31 -31 -39 -23 -8 8 11 44
70 131 44 67 82 125 83 131 5 18 -81 98 -170 159 -243 165 -536 304 -867 412
-111 36 -381 100 -423 100 -24 0 -3 -16 37 -30 23 -7 41 -19 41 -26 0 -16 48
-50 57 -41 3 4 14 -2 23 -13 23 -26 89 -53 194 -80 48 -12 103 -28 122 -36 18
-8 37 -13 41 -12 5 0 16 -2 26 -7 11 -4 23 -3 30 4 17 17 27 13 27 -10 0 -13
8 -23 20 -26 12 -3 53 -21 91 -39 39 -19 79 -34 90 -34 10 0 19 -5 19 -11 0
-6 9 -9 20 -6 13 3 20 0 20 -9 0 -8 8 -14 18 -15 9 -1 26 -2 37 -3 11 0 20 -7
20 -15 0 -8 6 -16 14 -19 9 -3 11 1 6 17 -4 13 -2 21 5 21 6 0 9 -4 6 -9 -3
-5 7 -14 23 -19 20 -7 31 -7 33 -1 2 6 11 7 21 3 10 -3 16 -12 13 -19 -2 -7 5
-20 15 -29 11 -9 17 -21 14 -26 -3 -5 4 -14 16 -20 16 -9 20 -9 14 0 -4 7 11
2 33 -11 22 -13 39 -26 36 -30 -2 -4 4 -6 13 -5 10 0 18 -5 18 -12 0 -16 33
-42 52 -42 7 0 10 6 7 15 -10 25 10 17 31 -12 26 -35 46 -55 74 -75 13 -9 22
-21 20 -27 -2 -6 -28 5 -59 26 -106 71 -326 196 -465 263 -218 106 -701 278
-746 267 -9 -2 -24 0 -34 6 -10 5 2 -19 27 -54 25 -35 61 -93 80 -129 44 -80
122 -260 115 -266 -5 -5 -107 99 -268 272 -50 54 -176 166 -278 247 -47 38
-103 84 -124 103 -35 32 -141 104 -153 104 -3 0 -20 11 -38 25 -18 14 -38 25
-44 25 -7 0 -12 4 -12 8 0 5 -91 57 -202 116 -423 223 -540 322 -620 525 -30
75 -35 71 -67 -54 -48 -193 -50 -349 -6 -520 13 -49 27 -101 30 -115 l7 -25
-20 22 c-14 16 -55 32 -133 53 -233 63 -420 156 -533 263 -48 46 -52 51 -16
24 65 -51 248 -150 354 -193 107 -43 270 -86 274 -73 2 5 -3 37 -12 72 -44
175 -24 394 51 566 42 97 48 98 108 14z m-1026 -14 c-11 -6 -15 -53 -17 -204
-2 -113 -8 -193 -13 -189 -5 3 -9 -41 -9 -105 0 -70 -4 -112 -11 -117 -24 -15
20 -212 76 -345 31 -72 83 -166 141 -254 29 -44 -4 -28 -67 31 -56 54 -104
119 -138 188 -14 28 -20 31 -56 28 -56 -5 -263 -57 -370 -93 -162 -56 -419
-190 -495 -260 -19 -17 -60 -55 -91 -84 -31 -29 -76 -68 -99 -86 -45 -36 -205
-227 -197 -236 3 -2 22 0 43 6 117 31 314 52 469 50 l160 -2 69 32 c68 31 113
40 101 21 -3 -6 -34 -29 -68 -52 -92 -62 -214 -170 -324 -288 -54 -57 -163
-170 -243 -250 -157 -158 -210 -193 -365 -241 -142 -44 -419 -36 -593 16 -26
8 -50 15 -55 15 -11 0 39 -94 86 -165 104 -154 253 -270 467 -363 67 -29 197
-69 265 -82 93 -18 130 -31 114 -41 -8 -5 -35 -9 -61 -9 -39 0 -48 -3 -54 -22
-4 -12 -2 -24 3 -25 13 -5 -21 -73 -43 -90 -10 -7 -19 -39 -25 -90 -12 -98
-24 -124 -58 -122 -14 1 -35 -2 -45 -6 -18 -8 -19 -4 -12 66 7 66 33 210 51
280 6 26 4 28 -92 59 -54 18 -103 35 -109 37 -8 3 -15 -15 -19 -49 -4 -29 -17
-98 -30 -153 -13 -55 -31 -163 -40 -240 -9 -77 -23 -166 -30 -198 -7 -31 -13
-58 -14 -60 0 -1 -3 -10 -6 -19 -17 -43 6 -37 149 36 82 41 153 73 157 70 19
-12 -52 -120 -85 -130 -12 -4 -62 -26 -113 -50 -71 -32 -93 -48 -97 -66 -11
-47 -26 -220 -26 -293 0 -68 36 -529 75 -948 19 -211 20 -268 1 -261 -18 7
-29 76 -60 374 -44 413 -47 450 -60 732 -7 153 -15 281 -19 284 -10 10 -115
-108 -137 -154 -32 -66 -82 -294 -92 -417 -9 -117 -5 -610 6 -660 3 -16 9 -55
11 -85 6 -66 41 -268 64 -365 l16 -70 83 -3 c45 -2 82 -7 82 -12 0 -11 -65
-13 -133 -4 -39 6 -48 11 -61 39 -26 54 -75 270 -102 450 -46 302 -44 836 3
1065 29 139 74 202 196 274 37 21 70 43 75 50 19 26 31 99 36 221 7 182 60
482 111 625 9 25 12 46 7 48 -4 1 -36 19 -71 40 -136 80 -243 188 -317 319
-45 79 -80 181 -67 194 7 7 36 2 84 -13 141 -44 396 -26 519 37 18 9 56 69
124 197 121 224 187 325 261 401 31 31 54 57 52 57 -11 0 -215 -51 -259 -64
-27 -9 -50 -11 -53 -6 -14 23 106 201 213 315 221 236 443 376 758 478 105 35
362 97 399 97 1 0 -5 31 -15 68 -29 110 -43 255 -37 371 13 241 85 512 129
485 6 -4 5 -10 -3 -15z m1639 -853 c263 -166 400 -268 490 -365 42 -46 7 -44
-84 5 -315 167 -418 229 -410 243 3 5 -2 12 -11 15 -14 6 -15 9 -4 15 10 6 2
17 -28 41 -23 19 -41 37 -41 42 0 7 28 23 48 27 1 1 19 -10 40 -23z m882 -56
c0 -5 -2 -10 -4 -10 -3 0 -8 5 -11 10 -3 6 -1 10 4 10 6 0 11 -4 11 -10z m570
-216 c0 -2 -7 -4 -15 -4 -8 0 -15 4 -15 10 0 5 7 7 15 4 8 -4 15 -8 15 -10z
m-1362 -90 c105 -32 379 -137 391 -150 3 -3 -3 -5 -14 -4 -47 5 -53 1 -48 -31
3 -20 -1 -37 -12 -49 -14 -15 -14 -18 -1 -23 8 -3 25 -4 37 -2 12 2 19 1 15
-2 -4 -4 -12 -8 -19 -9 -7 -1 -39 -7 -72 -15 -36 -8 -130 -13 -235 -13 -189
-1 -245 8 -405 63 -82 29 -278 122 -271 129 3 2 14 -2 26 -8 27 -15 41 -3 17
14 -9 7 -17 16 -17 18 0 10 39 16 42 6 2 -5 12 -6 22 -2 18 7 18 8 0 21 -16
11 -12 13 28 9 30 -3 48 0 51 7 2 7 26 18 52 26 25 7 49 20 52 28 4 10 14 13
32 8 19 -4 22 -3 11 5 -13 8 -13 10 3 10 9 0 17 -5 17 -11 0 -5 5 -7 12 -3 49
31 135 24 286 -22z m1067 -111 c19 -14 19 -15 -5 -8 -14 4 -36 14 -50 21 l-25
14 30 -6 c17 -4 39 -13 50 -21z m842 -59 c-7 -7 -57 18 -57 28 0 5 14 1 31 -7
17 -9 29 -19 26 -21z m-670 -42 c62 -50 133 -127 168 -181 35 -56 28 -61 -16
-9 -93 111 -128 148 -172 187 -61 52 -45 54 20 3z m-1532 -152 c3 -5 1 -10 -4
-10 -6 0 -11 5 -11 10 0 6 2 10 4 10 3 0 8 -4 11 -10z m-329 -15 c-3 -9 0 -15
9 -15 8 0 15 7 15 15 0 13 22 15 139 15 141 0 171 -8 152 -39 -6 -9 -1 -21 11
-33 16 -16 18 -22 7 -29 -15 -9 -13 -11 14 -26 15 -8 -8 -17 -110 -41 -70 -18
-166 -44 -213 -58 -301 -94 -498 -142 -641 -159 -44 -6 -58 -4 -69 9 -11 14
-10 19 6 31 10 8 27 15 36 15 9 0 19 4 22 8 3 4 40 19 83 32 43 13 85 30 94
37 8 7 21 13 28 13 7 0 9 5 6 10 -9 14 15 35 49 44 16 4 38 18 49 32 11 14 26
23 34 20 8 -3 12 -2 9 3 -7 10 17 21 45 21 10 0 19 4 19 10 0 5 7 7 16 3 14
-5 15 -3 5 15 -10 20 -9 20 24 15 20 -3 35 -1 35 4 0 11 12 13 65 16 19 1 36
5 36 10 1 4 3 12 4 17 1 6 3 12 4 15 0 3 6 5 12 5 6 0 9 -7 5 -15z m445 -71
c19 -21 26 -32 14 -26 -25 14 -70 62 -58 62 5 0 25 -16 44 -36z m-56 -4 c3 -6
-1 -7 -9 -4 -18 7 -21 14 -7 14 6 0 13 -4 16 -10z m975 -34 c84 -15 150 -40
150 -55 0 -6 -10 -11 -22 -11 -23 -1 -23 -1 2 -15 23 -13 11 -15 -116 -12 -78
1 -137 5 -132 8 12 8 -24 15 -150 30 -51 6 -112 16 -135 23 -42 12 -41 13 78
25 66 7 129 14 140 15 49 7 116 4 185 -8z m-1180 -122 c-52 -19 -115 -44 -138
-55 -49 -22 -288 -82 -306 -76 -29 10 458 165 519 165 11 1 -23 -15 -75 -34z
m2466 -29 c18 -16 23 -25 14 -25 -8 0 -23 12 -33 25 -23 32 -18 32 19 0z
m-1866 -44 c0 -5 11 -11 25 -13 14 -3 25 -2 25 3 0 4 13 2 30 -4 19 -7 25 -14
17 -19 -8 -5 -5 -9 8 -14 11 -4 34 -12 50 -19 17 -7 39 -9 50 -4 16 6 17 8 3
8 -9 1 -19 5 -22 10 -3 4 19 1 49 -7 30 -8 52 -19 50 -23 -5 -7 79 -29 110
-29 8 0 19 -9 25 -20 8 -15 17 -19 34 -14 25 6 44 -10 26 -21 -18 -11 -1 -24
26 -19 18 3 25 1 22 -8 -3 -7 -13 -13 -24 -13 -10 0 -19 -7 -19 -15 0 -9 -38
-36 -90 -64 -91 -49 -199 -125 -191 -134 3 -2 21 5 40 16 25 15 33 17 29 6 -3
-8 -9 -14 -14 -14 -5 0 -19 -11 -31 -25 -12 -14 -26 -25 -31 -25 -5 0 -23 -10
-40 -22 -43 -31 -70 -45 -152 -80 -264 -111 -458 -166 -640 -183 l-69 -6 24
22 c17 15 19 20 8 16 -27 -10 -22 11 11 43 21 21 25 30 15 34 -8 3 -21 3 -30
-1 -12 -4 -15 -2 -12 8 3 8 11 13 17 12 6 -2 11 4 11 12 0 8 -7 15 -15 15 -8
0 -15 -5 -15 -11 0 -5 -4 -8 -8 -5 -5 3 -7 19 -4 36 3 21 0 30 -9 30 -10 0
-11 3 -3 8 9 5 8 11 -2 20 -12 10 -14 10 -14 -3 0 -19 -19 -19 -44 0 -16 12
-22 12 -42 -2 -49 -31 -21 2 99 119 202 199 307 269 552 367 94 38 165 52 165
32z m1920 -24 c0 -6 13 -25 29 -42 29 -30 85 -124 78 -131 -2 -2 -22 25 -45
60 -22 34 -48 69 -57 76 -8 7 -15 19 -15 26 0 8 -4 14 -10 14 -5 0 -10 4 -10
10 0 5 7 7 15 4 8 -4 15 -11 15 -17z m141 -215 c11 -29 5 -28 -16 4 -11 17
-12 25 -4 22 6 -2 16 -14 20 -26z m-1841 -252 c-13 -11 -29 -20 -37 -20 -7 0
-13 -4 -13 -9 0 -5 -9 -11 -21 -14 -11 -3 -19 -1 -17 5 2 5 8 10 13 10 6 0 24
11 40 24 37 29 68 33 35 4z m668 -81 c-16 -29 -19 -43 -11 -46 7 -2 9 -11 6
-19 -3 -8 1 -14 11 -14 9 0 16 7 16 15 0 8 5 15 11 15 6 0 8 -15 5 -37 -3 -21
-2 -32 0 -25 10 21 36 14 29 -8 -9 -28 6 -25 50 10 39 31 59 33 35 5 -11 -13
-11 -16 0 -13 8 2 14 -4 15 -12 0 -8 13 -21 28 -28 27 -13 27 -15 10 -27 -17
-13 -17 -14 1 -28 13 -9 17 -20 12 -32 -3 -10 -1 -24 5 -31 14 -17 -3 -71 -28
-90 -16 -12 -15 -12 7 -7 24 5 24 5 5 -10 -11 -8 -23 -13 -27 -11 -8 5 -12
-10 -9 -33 1 -6 -3 -14 -9 -18 -5 -3 -10 -15 -10 -26 0 -10 -4 -19 -9 -19 -5
0 -13 -9 -16 -20 -4 -11 -10 -18 -15 -15 -5 3 -11 -4 -15 -15 -3 -11 -11 -20
-16 -20 -5 0 -9 -7 -9 -16 0 -14 -2 -15 -17 -3 -15 12 -16 12 -11 -7 4 -17 2
-20 -12 -17 -10 3 -25 -6 -38 -21 -11 -14 -27 -26 -36 -26 -9 0 -19 -7 -22
-15 -4 -8 -17 -15 -30 -15 -13 0 -24 -4 -24 -8 0 -7 -52 -42 -64 -42 -3 0 31
33 76 73 44 39 97 92 117 116 32 40 25 36 -66 -37 -118 -95 -228 -163 -251
-155 -10 4 -13 2 -8 -5 5 -8 -3 -12 -26 -12 -22 0 -28 -3 -20 -9 10 -6 4 -10
-20 -16 -18 -4 -36 -7 -40 -6 -5 0 -8 -3 -8 -8 0 -10 -55 -34 -145 -63 -53
-17 -116 -43 -167 -69 -10 -5 -23 -9 -30 -9 -7 1 14 15 46 33 84 46 96 53 109
67 10 10 7 10 -10 1 -12 -6 -29 -8 -37 -5 -11 4 -16 1 -16 -10 0 -15 -9 -20
-27 -13 -5 1 -7 6 -5 11 7 21 -12 46 -44 56 -28 10 -33 14 -23 26 9 12 5 14
-29 14 -24 0 -44 -6 -49 -14 -4 -7 -19 -16 -33 -20 l-25 -7 25 18 c288 209
467 369 684 612 55 61 106 111 113 111 7 0 34 20 61 45 26 25 48 45 50 45 1 0
-8 -19 -20 -41z m995 -251 c53 -51 97 -99 97 -106 0 -6 7 -12 15 -12 8 0 15
-9 15 -20 0 -11 -1 -20 -2 -20 -2 0 -25 7 -51 15 -67 20 -145 66 -189 112 -40
42 -118 159 -118 178 0 6 -13 32 -29 58 l-30 46 98 -78 c54 -44 141 -121 194
-173z m-799 117 c-4 -8 -10 -12 -15 -9 -11 6 -2 24 11 24 5 0 7 -7 4 -15z
m-657 -27 c-3 -8 -6 -5 -6 6 -1 11 2 17 5 13 3 -3 4 -12 1 -19z m38 -28 c8
-13 -5 -13 -25 0 -13 8 -13 10 2 10 9 0 20 -4 23 -10z m-85 -26 c0 -2 -7 -4
-15 -4 -8 0 -15 4 -15 10 0 5 7 7 15 4 8 -4 15 -8 15 -10z m40 -9 c0 -8 -7
-15 -15 -15 -13 0 -14 3 -3 15 16 18 18 18 18 0z m1060 -121 c0 13 5 16 18 11
9 -3 21 -7 27 -8 20 -4 77 -85 120 -172 58 -115 105 -286 90 -322 -11 -25 -12
-44 -3 -71 6 -16 3 -25 -12 -34 -11 -7 -20 -23 -20 -36 0 -13 -4 -21 -10 -17
-5 3 -7 12 -4 19 3 7 -2 16 -10 19 -12 5 -16 -1 -17 -21 -1 -18 -10 0 -28 53
-33 100 -59 155 -76 161 -7 3 -15 19 -19 35 -3 17 -10 28 -16 24 -5 -3 -7 0
-4 8 2 7 0 25 -5 39 -7 18 -6 36 0 55 8 23 4 52 -24 153 -19 68 -29 116 -21
105 13 -18 14 -18 14 -1z m-4604 -385 c-49 -93 -96 -236 -79 -247 6 -5 7 -30
2 -72 -5 -36 -11 -90 -15 -121 -4 -38 -2 -73 9 -110 8 -30 18 -76 22 -104 3
-27 18 -75 32 -105 41 -85 140 -221 188 -260 44 -36 60 -59 27 -41 -52 28
-146 107 -191 161 -61 73 -133 211 -157 301 -12 44 -17 101 -17 185 0 143 19
210 89 325 52 84 125 182 131 175 2 -2 -16 -41 -41 -87z m4561 9 c-3 -8 -6 -5
-6 6 -1 11 2 17 5 13 3 -3 4 -12 1 -19z m-1367 -48 c0 -5 -5 -10 -11 -10 -5 0
-7 5 -4 10 3 6 8 10 11 10 2 0 4 -4 4 -10z m61 -30 c5 0 9 -4 9 -10 0 -16 -37
-11 -44 6 -5 12 -2 15 10 10 8 -3 20 -6 25 -6z m-1 -60 c0 -5 -4 -10 -10 -10
-5 0 -10 5 -10 10 0 6 5 10 10 10 6 0 10 -4 10 -10z m-2939 -377 c-20 -73 -41
-208 -47 -303 -11 -157 29 -322 126 -525 52 -109 148 -230 241 -304 28 -22 47
-41 42 -41 -21 0 -181 139 -230 200 -138 171 -223 408 -223 620 0 70 22 219
42 280 33 102 73 162 49 73z m5066 -220 c-2 -16 -4 -5 -4 22 0 28 2 40 4 28 2
-13 2 -35 0 -50z m-12 -155 c-4 -62 -10 -107 -13 -100 -6 18 8 225 15 218 3
-3 2 -56 -2 -118z m-1440 -57 c247 -81 406 -275 451 -551 30 -182 15 -313 -53
-450 -106 -218 -313 -340 -574 -340 -127 0 -184 13 -294 65 -137 65 -258 181
-316 301 -32 69 -69 202 -68 249 0 24 6 16 24 -37 20 -57 77 -158 90 -158 2 0
2 9 0 21 -7 38 7 78 41 114 18 19 36 35 41 35 4 0 19 -19 32 -42 38 -66 105
-132 168 -164 49 -25 72 -30 151 -32 88 -4 97 -2 156 27 58 28 106 71 163 144
22 28 43 29 43 3 0 -8 9 -16 20 -19 11 -3 23 -13 26 -24 4 -10 16 -25 27 -35
l21 -16 -28 -44 -29 -43 32 30 c42 39 107 173 120 249 25 139 5 273 -61 406
-38 77 -42 82 -46 55 -12 -106 -61 -165 -135 -165 l-42 0 3 -43 c3 -36 -1 -47
-24 -70 -51 -51 -133 -29 -151 42 -5 22 -2 36 21 92 5 12 -1 20 -24 29 -113
47 -98 215 24 271 23 10 63 19 91 19 42 0 47 2 35 14 -37 35 -116 66 -167 66
-56 0 -72 15 -25 23 54 10 198 -3 257 -22z m-2345 9 c-8 -5 -25 -10 -37 -10
-29 0 -129 -38 -178 -68 -50 -31 -137 -113 -179 -172 -69 -96 -116 -247 -116
-372 1 -111 54 -257 127 -346 45 -56 54 -48 12 12 l-32 45 44 50 c24 27 50 49
57 50 6 1 12 6 12 13 0 6 20 -15 44 -48 47 -63 77 -89 143 -122 51 -27 159
-44 215 -36 78 12 168 62 236 131 34 36 62 61 62 56 0 -5 8 -18 18 -29 9 -11
27 -34 39 -50 l22 -31 -20 -33 c-28 -46 -17 -48 18 -3 53 68 75 112 117 227
15 41 15 6 0 -65 -33 -159 -92 -268 -200 -369 -126 -118 -293 -182 -473 -181
-135 0 -191 14 -307 70 -83 41 -112 62 -165 118 -110 117 -166 246 -176 408
-9 158 25 315 98 442 40 70 145 182 207 222 52 33 165 78 227 91 60 12 203 12
185 0z m3922 -40 c-1 -7 3 -19 9 -27 10 -11 14 -11 20 -1 6 9 36 13 104 13 52
0 95 -1 95 -3 0 -2 -5 -12 -11 -23 -10 -19 -9 -19 10 -9 13 7 21 7 21 1 0 -6
7 -8 16 -4 13 5 15 2 9 -15 -4 -14 -2 -22 5 -22 7 0 9 -8 5 -19 -3 -11 -1 -22
5 -26 5 -3 10 1 10 9 0 17 15 21 24 7 4 -5 7 -21 8 -35 2 -27 12 -34 24 -15 5
8 9 8 14 -1 4 -6 16 -13 26 -15 10 -2 21 -4 24 -5 3 -1 -5 -5 -18 -11 -13 -5
-20 -14 -17 -19 5 -7 11 -8 19 -1 7 6 17 6 26 1 12 -8 10 -10 -7 -10 -13 0
-23 -4 -23 -9 0 -5 -3 -17 -7 -27 -5 -13 -3 -15 7 -9 8 5 11 3 9 -4 -3 -7 -9
-12 -14 -11 -5 1 -12 -7 -16 -17 -6 -15 -8 -14 -8 6 -1 24 -1 24 -20 5 -10
-10 -16 -23 -13 -28 3 -5 0 -6 -7 -1 -9 5 -10 10 -2 18 14 14 14 27 0 27 -21
0 -37 -26 -27 -43 7 -13 5 -17 -10 -17 -10 0 -24 -6 -31 -12 -10 -11 -11 -9
-5 5 5 15 3 16 -21 7 -34 -13 -35 -13 -35 5 0 8 6 15 13 15 6 0 4 5 -6 11 -13
8 -22 7 -33 -1 -17 -15 -18 -6 -4 21 7 13 7 19 0 19 -5 0 -10 -6 -10 -12 0
-10 -3 -9 -9 1 -7 11 -9 11 -13 0 -4 -12 -7 -12 -21 0 -10 7 -17 10 -17 7 0
-4 -7 -1 -15 8 -9 8 -22 13 -30 10 -21 -8 -19 16 3 33 12 9 3 8 -28 -4 -25 -9
-48 -21 -52 -27 -10 -14 -10 96 -2 198 5 49 11 75 18 73 6 -3 10 -10 8 -17z
m118 0 c0 -5 -5 -10 -11 -10 -5 0 -7 5 -4 10 3 6 8 10 11 10 2 0 4 -4 4 -10z
m70 6 c0 -11 -19 -15 -25 -6 -3 5 1 10 9 10 9 0 16 -2 16 -4z m-343 -88 c-3
-7 -5 -2 -5 12 0 14 2 19 5 13 2 -7 2 -19 0 -25z m-3435 2 c54 -15 132 -81
157 -132 36 -76 21 -181 -30 -209 l-23 -12 22 -8 c59 -22 41 -118 -22 -119
-48 0 -73 64 -39 102 15 17 15 18 -15 18 -17 0 -37 3 -45 6 -11 4 -17 -5 -22
-35 -13 -80 -100 -109 -149 -50 -30 35 -33 67 -10 110 8 17 14 32 12 33 -2 1
-16 8 -32 16 -103 52 -78 223 39 276 36 16 106 18 157 4z m4008 -240 c0 -5 -2
-10 -4 -10 -3 0 -8 5 -11 10 -3 6 -1 10 4 10 6 0 11 -4 11 -10z m-2290 -50
c22 -22 27 -69 8 -88 -32 -32 -98 2 -98 50 0 22 34 58 55 58 8 0 24 -9 35 -20z
m-1994 -25 c36 -55 -25 -117 -80 -81 -32 20 -34 58 -6 86 28 28 66 26 86 -5z
m2412 -31 c27 -18 30 -69 5 -96 -23 -25 -68 -23 -87 4 -22 31 -20 58 6 85 25
27 45 29 76 7z m-3271 -66 c-3 -7 -5 -2 -5 12 0 14 2 19 5 13 2 -7 2 -19 0
-25z m3 -160 c0 -70 -7 -76 -10 -8 -3 53 -2 70 5 70 3 0 5 -28 5 -62z m-1156
-1213 c18 -61 40 -123 50 -138 25 -37 16 -42 -33 -18 -53 28 -89 97 -98 188
-6 59 -4 66 10 60 11 -4 17 -1 17 9 0 9 5 14 11 12 6 -2 26 -53 43 -113z
m5618 -95 c-2 -16 -3 -30 -1 -31 2 0 49 -7 104 -14 l100 -12 -70 -2 c-38 -2
-91 -5 -117 -7 -27 -3 -48 -3 -48 1 0 3 5 26 11 51 13 50 28 60 21 14z m658 4
c-46 -119 -194 -256 -356 -327 -121 -53 -318 -105 -329 -87 -8 13 7 19 118 46
134 32 317 121 412 201 40 33 89 87 115 126 24 37 46 67 47 67 1 0 -2 -12 -7
-26z m-6024 -76 c4 -5 -33 -8 -82 -8 -49 0 -83 4 -77 8 16 10 149 9 159 0z
m129 2 c3 -5 -1 -10 -10 -10 -9 0 -13 5 -10 10 3 6 8 10 10 10 2 0 7 -4 10
-10z m455 -35 c0 -41 -309 -79 -346 -43 -3 4 141 16 260 22 16 0 33 8 39 16
12 20 47 23 47 5z m4490 -19 c69 -3 132 0 142 5 23 12 25 -12 4 -34 -34 -33
-211 -28 -350 10 -19 5 -19 6 -1 19 11 9 31 12 50 9 16 -3 86 -7 155 -9z
m-501 -63 c-2 -48 -24 -128 -34 -125 -6 1 -26 7 -47 12 -34 10 -35 12 -25 35
7 14 15 25 20 25 4 0 4 12 1 28 -4 15 -3 24 1 20 11 -10 47 11 40 23 -4 5 5 9
19 9 22 0 26 -4 25 -27z m251 -3 c71 -11 270 -45 317 -55 24 -6 43 -54 43
-110 l0 -30 -114 7 c-63 3 -177 14 -253 24 -76 9 -149 16 -162 15 -21 -1 -23
2 -18 27 3 15 15 53 27 85 21 56 23 57 53 53 18 -3 66 -10 107 -16z m-3700
-84 c0 -3 -4 -8 -10 -11 -5 -3 -10 -1 -10 4 0 6 5 11 10 11 6 0 10 -2 10 -4z
m70 -86 c6 -11 7 -20 2 -20 -6 0 -12 9 -15 20 -3 11 -3 20 -1 20 2 0 8 -9 14
-20z m2318 -1162 c8 -7 17 -7 27 2 9 7 18 10 22 6 10 -9 -72 -91 -142 -141
-66 -48 -192 -113 -272 -141 -28 -10 -50 -21 -47 -25 2 -5 19 -2 37 5 17 8 38
11 44 9 7 -3 16 2 19 11 3 9 17 16 29 16 13 0 27 5 30 11 4 6 13 8 21 5 8 -3
23 3 34 14 11 11 25 20 30 20 6 0 10 5 10 10 0 6 4 10 9 10 6 0 30 14 54 30
25 17 50 30 55 30 6 0 17 6 24 13 24 21 58 38 58 27 0 -5 -11 -19 -24 -32 -15
-15 -29 -49 -41 -98 -20 -82 -53 -189 -65 -205 -4 -5 -15 -35 -24 -65 -10 -30
-34 -81 -54 -112 -34 -52 -41 -58 -90 -69 -29 -7 -55 -16 -58 -21 -3 -4 -15
-8 -28 -8 -12 0 -40 -9 -62 -19 -22 -11 -86 -27 -143 -37 -99 -16 -102 -16
-116 2 -11 15 -16 17 -26 7 -11 -11 -9 -13 6 -13 10 0 16 -3 12 -6 -11 -12
-122 -11 -129 0 -5 8 -8 7 -8 -1 0 -16 -59 -5 -78 14 -8 7 -26 13 -40 12 -29
0 -106 18 -134 32 -10 5 -24 9 -32 9 -8 0 -29 8 -48 17 -59 29 -68 33 -79 33
-15 0 -146 79 -161 98 -11 13 -11 15 4 9 22 -8 98 -28 123 -33 11 -2 34 -6 50
-9 25 -5 27 -4 13 5 -24 15 -23 33 4 56 12 10 18 13 14 7 -4 -7 -2 -13 3 -13
14 0 14 26 1 51 -9 15 -7 21 7 27 23 9 29 34 7 30 -9 -2 -19 4 -21 12 -4 13
-3 13 6 0 6 -8 11 -10 12 -5 6 63 6 62 -46 80 -83 29 -110 46 -94 56 8 5 19 9
24 9 6 0 4 -4 -3 -9 -15 -9 18 -22 68 -28 30 -3 75 -11 75 -13 0 -1 25 -3 55
-5 66 -5 54 1 -84 45 -103 32 -176 65 -188 84 -20 30 5 47 70 48 17 0 32 4 32
8 0 4 15 7 33 8 17 0 77 7 132 16 55 9 114 18 130 20 84 9 141 20 153 29 6 5
31 10 55 11 23 1 48 5 55 9 6 5 16 6 21 2 6 -3 29 -1 53 5 24 6 68 13 98 15
91 8 135 14 152 20 55 21 341 23 366 3z m354 -207 c-8 -5 -11 -17 -7 -33 4
-15 2 -29 -4 -32 -6 -4 -11 -18 -11 -31 0 -13 -8 -31 -17 -40 -16 -16 -14 -19
25 -52 23 -19 42 -39 42 -45 0 -5 -14 2 -31 16 -36 31 -69 41 -105 32 -22 -6
-24 -4 -15 11 5 10 19 28 30 40 12 12 21 31 21 41 0 10 10 27 22 38 12 10 18
13 13 5 -5 -10 -4 -12 3 -7 7 4 9 17 6 31 -4 16 0 26 13 33 20 12 34 5 15 -7z
m-2175 -177 c22 -20 23 -23 6 -15 -12 6 -41 11 -65 11 -42 1 -43 1 -18 15 35
20 45 19 77 -11z m543 -329 c208 -73 466 -107 652 -86 109 12 303 59 373 90
72 32 77 29 70 -26 -4 -27 -10 -61 -15 -78 -12 -45 -23 -105 -25 -150 -3 -52
-49 -250 -69 -297 -20 -47 -21 -46 9 -40 31 6 31 1 -1 -48 -30 -45 -44 -51
-44 -17 0 21 -1 21 -18 -5 -9 -14 -30 -42 -46 -62 -16 -20 -26 -39 -23 -42 3
-3 11 5 17 18 15 29 51 68 62 68 30 0 -53 -124 -89 -134 -14 -4 -23 -14 -23
-26 0 -26 -38 -47 -46 -25 -3 8 -10 15 -15 15 -4 0 -6 -7 -2 -16 3 -8 -5 -26
-18 -41 -13 -14 -17 -23 -9 -19 8 4 6 0 -4 -8 -25 -20 -46 -20 -46 -1 0 17 -9
19 -30 5 -13 -9 -13 -10 0 -10 10 0 5 -9 -14 -26 -28 -25 -53 -27 -48 -5 1 7
-7 25 -17 40 -19 26 -25 28 -73 24 -67 -5 -115 -28 -127 -62 -5 -14 -10 -21
-10 -14 -1 6 -10 9 -21 6 -13 -3 -30 5 -50 25 -17 17 -37 29 -45 26 -7 -3 -31
10 -52 30 -21 19 -32 36 -25 36 26 0 10 19 -19 22 -36 3 -97 68 -65 68 9 0 28
-11 42 -25 40 -40 42 -29 3 13 -20 20 -49 54 -64 75 -17 23 -34 36 -42 33 -8
-4 -30 12 -53 36 -21 24 -41 40 -44 37 -4 -3 12 -31 34 -62 22 -30 40 -60 40
-65 0 -5 11 -20 24 -34 12 -14 33 -42 45 -62 13 -20 29 -36 37 -36 8 0 19 -10
25 -22 11 -24 90 -88 109 -88 5 0 10 -6 10 -13 0 -7 25 -25 55 -40 41 -20 55
-32 55 -48 0 -32 32 -79 58 -86 13 -3 46 -3 74 -1 58 6 98 40 98 82 0 18 18
35 83 76 46 30 119 91 166 139 79 81 100 111 179 249 l32 57 -2 -215 c-2 -237
-12 -401 -28 -429 -10 -19 -50 -19 -50 0 0 5 -7 9 -15 9 -8 0 -15 -8 -15 -19
0 -14 -6 -17 -24 -14 -13 3 -34 0 -46 -7 -24 -13 -43 -4 -21 9 11 7 9 11 -7
20 -15 8 -21 7 -25 -3 -7 -18 -57 -27 -57 -11 0 22 -50 25 -68 4 -17 -17 -18
-17 -41 12 -25 32 -61 38 -81 14 -7 -8 -17 -12 -23 -8 -18 11 -90 13 -103 2
-8 -7 -14 -7 -19 1 -3 5 -11 10 -16 10 -6 0 -7 -5 -4 -10 9 -15 -12 -12 -45 5
-17 9 -32 15 -35 15 -3 0 -15 0 -27 0 -21 1 -21 2 -5 11 9 5 22 7 29 3 7 -4 8
-3 4 4 -7 12 -40 11 -52 0 -9 -10 -35 3 -28 13 3 5 -1 6 -9 3 -7 -2 -26 0 -41
6 -23 9 -26 13 -16 25 10 12 10 15 -3 15 -9 0 -19 -5 -23 -12 -5 -8 -11 -6
-19 6 -7 9 -17 16 -21 15 -25 -4 -54 2 -54 12 0 7 -10 21 -22 32 -19 16 -19
19 -5 14 13 -5 17 -3 14 5 -2 7 -10 12 -17 10 -7 -1 -18 5 -26 15 -11 15 -15
15 -23 4 -12 -18 -22 1 -10 19 15 26 11 43 -11 37 -11 -3 -20 -1 -20 5 0 6 -7
7 -15 4 -12 -4 -14 -2 -7 11 7 11 5 21 -5 31 -10 11 -11 17 -3 22 15 9 2 60
-15 60 -10 0 -14 15 -13 48 0 26 -1 68 -2 93 -1 26 1 53 6 60 5 8 7 23 6 34
-2 18 -1 18 10 4 19 -22 42 -28 60 -15 14 10 13 18 -8 81 -13 39 -26 86 -28
105 -3 19 -7 44 -10 55 -2 11 -9 71 -16 133 -11 104 -10 115 5 126 15 11 16
15 4 34 -8 12 -17 22 -21 22 -4 0 -15 14 -24 31 -19 37 -31 39 126 -16z m-95
-347 c10 -29 20 -59 23 -65 2 -7 -3 -13 -11 -13 -9 0 -19 6 -24 13 -10 15 -21
117 -13 117 3 0 14 -24 25 -52z m1166 -71 c-6 -14 -19 -31 -30 -36 -20 -11
-20 -10 -4 26 8 21 20 47 26 58 11 20 12 20 15 -1 1 -11 -2 -32 -7 -47z
m-1125 -68 c23 -46 17 -72 -11 -49 -20 17 -47 79 -39 92 11 17 29 2 50 -43z
m1114 7 c0 -20 -28 -84 -40 -91 -5 -3 -14 -3 -20 0 -11 7 17 85 34 97 17 12
26 9 26 -6z m348 -138 c7 -7 12 -22 12 -35 0 -17 -6 -23 -23 -23 -29 0 -62 34
-54 55 7 18 48 20 65 3z m-1788 -32 c0 -18 -15 -36 -31 -36 -18 0 -26 20 -12
33 7 8 43 10 43 3z m454 -69 c11 -15 17 -29 14 -32 -9 -9 -69 46 -62 56 9 15
25 6 48 -24z m4985 -43 c27 -63 90 -123 156 -151 25 -10 45 -20 45 -23 0 -3
-25 -16 -56 -29 -63 -27 -123 -90 -151 -156 -10 -25 -20 -45 -23 -45 -3 0 -16
25 -29 56 -27 63 -90 123 -156 151 -25 10 -45 20 -45 23 0 3 25 16 56 29 63
27 123 90 151 156 10 25 20 45 23 45 3 0 16 -25 29 -56z m-2676 -41 c-106 -2
-280 -2 -385 0 -106 1 -20 2 192 2 212 0 298 -1 193 -2z m-209 -63 c191 0 193
0 220 -25 49 -45 31 -146 -33 -180 l-26 -14 33 -11 c78 -28 85 -164 10 -194
-22 -9 -104 -16 -234 -20 l-201 -6 -6 98 c-4 53 -7 154 -7 224 0 128 4 143 38
132 8 -2 100 -4 206 -4z m-2194 -80 c0 -5 -5 -10 -11 -10 -5 0 -7 5 -4 10 3 6
8 10 11 10 2 0 4 -4 4 -10z m515 0 c3 -4 -2 -13 -11 -21 -12 -10 -19 -9 -36 9
l-21 21 32 -1 c17 -1 34 -4 36 -8z"/>
<path d="M7200 8556 c0 -3 9 -10 20 -16 11 -6 20 -8 20 -6 0 3 -9 10 -20 16
-11 6 -20 8 -20 6z"/>
<path d="M2790 8138 c-119 -8 -126 -10 -147 -36 -77 -93 -353 -544 -353 -577
0 -9 103 57 155 99 61 50 214 209 237 247 10 16 21 29 26 29 4 0 26 17 47 38
92 86 191 163 260 201 24 13 -36 13 -225 -1z"/>
<path d="M2320 6765 c-16 -42 -50 -220 -49 -257 1 -27 5 -19 25 42 13 41 43
110 67 152 47 81 46 88 -9 88 -17 0 -27 -8 -34 -25z"/>
<path d="M1926 5726 c-3 -13 -2 -35 3 -48 8 -19 10 -15 10 25 1 52 -4 60 -13
23z"/>
<path d="M4975 8260 c3 -5 8 -10 11 -10 2 0 4 5 4 10 0 6 -5 10 -11 10 -5 0
-7 -4 -4 -10z"/>
<path d="M4210 7910 c0 -5 5 -10 10 -10 6 0 10 5 10 10 0 6 -4 10 -10 10 -5 0
-10 -4 -10 -10z"/>
<path d="M4915 7469 c-4 -6 -5 -12 -2 -15 2 -3 7 2 10 11 7 17 1 20 -8 4z"/>
<path d="M5959 6583 c-13 -15 -12 -15 9 -4 23 12 28 21 13 21 -5 0 -15 -7 -22
-17z"/>
<path d="M3690 5600 c-8 -5 -12 -12 -9 -15 4 -3 12 1 19 10 14 17 11 19 -10 5z"/>
<path d="M3790 4706 c0 -2 8 -10 18 -17 15 -13 16 -12 3 4 -13 16 -21 21 -21
13z"/>
<path d="M3830 4676 c0 -2 8 -10 18 -17 15 -13 16 -12 3 4 -13 16 -21 21 -21
13z"/>
<path d="M8030 5476 c0 -9 5 -16 10 -16 6 0 10 4 10 9 0 6 -4 13 -10 16 -5 3
-10 -1 -10 -9z"/>
<path d="M8395 5440 c-3 -6 1 -7 9 -4 18 7 21 14 7 14 -6 0 -13 -4 -16 -10z"/>
<path d="M8250 5410 c0 -5 5 -10 11 -10 5 0 7 5 4 10 -3 6 -8 10 -11 10 -2 0
-4 -4 -4 -10z"/>
<path d="M8280 5380 c0 -5 5 -10 10 -10 6 0 10 5 10 10 0 6 -4 10 -10 10 -5 0
-10 -4 -10 -10z"/>
<path d="M5889 2033 c-13 -16 -12 -17 4 -4 16 13 21 21 13 21 -2 0 -10 -8 -17
-17z"/>
<path d="M5460 1900 c-12 -8 -11 -10 7 -10 12 0 25 5 28 10 8 13 -15 13 -35 0z"/>
<path d="M5380 1880 c-12 -8 -12 -10 5 -10 11 0 27 5 35 10 12 8 12 10 -5 10
-11 0 -27 -5 -35 -10z"/>
<path d="M5080 1460 c0 -5 5 -10 11 -10 5 0 7 5 4 10 -3 6 -8 10 -11 10 -2 0
-4 -4 -4 -10z"/>
<path d="M4640 915 c0 -10 40 -75 47 -75 2 0 -6 17 -18 38 -28 45 -29 47 -29
37z"/>
<path d="M4875 620 c10 -11 23 -20 28 -20 6 0 2 9 -8 20 -10 11 -23 20 -28 20
-6 0 -2 -9 8 -20z"/>
<path d="M4998 572 c-17 -7 -16 -8 2 -20 17 -11 20 -10 20 8 0 11 -1 20 -2 19
-2 0 -11 -4 -20 -7z"/>
<path d="M4720 462 c0 -5 7 -15 15 -22 8 -7 15 -8 15 -2 0 5 -7 15 -15 22 -8
7 -15 8 -15 2z"/>
<path d="M6770 490 l0 -50 38 0 c43 0 62 14 62 46 0 44 -10 54 -56 54 l-44 0
0 -50z"/>
<path d="M6772 318 c3 -49 5 -53 30 -56 15 -2 36 2 48 8 17 9 21 19 18 53 l-3
42 -48 3 -48 3 3 -53z"/>
<path d="M3311 4844 c0 -11 3 -14 6 -6 3 7 2 16 -1 19 -3 4 -6 -2 -5 -13z"/>
<path d="M4421 4232 c-59 -30 -76 -78 -75 -212 2 -196 32 -327 116 -495 52
-105 98 -164 183 -237 146 -125 312 -182 525 -182 154 1 228 18 366 84 223
107 380 320 436 590 28 133 29 340 2 396 -36 73 -104 82 -260 34 -143 -44
-255 -61 -459 -67 -267 -8 -468 15 -674 78 -110 34 -115 34 -160 11z m1175
-169 c-90 -174 -467 -236 -713 -117 -70 34 -143 101 -143 131 0 16 44 18 330
14 168 -3 516 21 530 36 13 13 10 -39 -4 -64z m-62 -578 c15 -8 32 -15 37 -15
22 0 86 -76 87 -104 1 -17 7 -33 13 -36 23 -15 -139 -112 -262 -157 -69 -25
-85 -27 -239 -28 -133 0 -176 4 -222 18 -51 16 -57 21 -48 37 7 14 6 23 -7 35
-14 14 -14 18 -2 26 11 7 12 9 0 9 -11 0 -10 5 3 24 9 14 13 31 10 39 -3 8 8
24 25 38 17 13 31 33 31 44 0 14 3 16 9 7 6 -10 10 -10 20 2 7 8 27 18 44 22
18 3 38 11 45 16 8 7 16 7 25 0 6 -5 36 -13 65 -17 43 -6 59 -3 92 14 23 12
51 21 65 21 13 0 27 5 30 10 10 16 146 12 179 -5z m-659 -285 c3 -5 2 -10 -4
-10 -5 0 -13 5 -16 10 -3 6 -2 10 4 10 5 0 13 -4 16 -10z"/>
<path d="M3807 3224 c-8 -8 1 -24 12 -24 4 0 8 7 8 15 0 16 -9 20 -20 9z"/>
<path d="M4966 2694 c-8 -22 -4 -25 11 -9 7 8 9 16 4 19 -5 3 -12 -1 -15 -10z"/>
<path d="M5253 2703 c-18 -7 -16 -23 3 -23 9 0 12 5 8 12 -5 7 -3 8 6 3 19
-12 71 -12 67 -1 -3 10 -65 17 -84 9z"/>
<path d="M5110 2690 c0 -4 9 -10 21 -13 12 -3 19 -1 17 5 -5 13 -38 20 -38 8z"/>
<path d="M5160 2682 c0 -4 9 -8 20 -8 11 0 20 4 20 8 0 4 -9 8 -20 8 -11 0
-20 -4 -20 -8z"/>
</g>
</svg>
